<svg width="26" height="11" viewBox="0 0 26 11" fill="none" xmlns="http://www.w3.org/2000/svg">
<path fill-rule="evenodd" clip-rule="evenodd" d="M4.69245 1.39369C4.39147 1.75882 3.90989 2.04682 3.42831 2.00568C3.36812 1.51197 3.60389 0.98741 3.87979 0.663416C4.18078 0.287995 4.7075 0.020571 5.13389 0C5.18406 0.514276 4.98842 1.01827 4.69245 1.39369ZM5.12884 2.10339C4.70458 2.07835 4.31746 2.23419 4.00478 2.36007C3.80356 2.44107 3.63316 2.50966 3.50352 2.50966C3.35805 2.50966 3.18062 2.4374 2.9814 2.35627C2.72036 2.24995 2.42192 2.12841 2.10896 2.13424C1.39162 2.14453 0.724436 2.56109 0.358239 3.22451C-0.394222 4.55134 0.162599 6.51587 0.889978 7.59585C1.24614 8.1307 1.67254 8.71697 2.23437 8.6964C2.48155 8.68684 2.65935 8.60949 2.84336 8.52944C3.05521 8.43728 3.27528 8.34155 3.6189 8.34155C3.95061 8.34155 4.16106 8.43479 4.36308 8.52429C4.55516 8.6094 4.73962 8.69113 5.01346 8.68611C5.59537 8.67583 5.96156 8.15127 6.31773 7.61642C6.70209 7.04238 6.87099 6.48215 6.89663 6.39714L6.89963 6.3873C6.89902 6.38667 6.8943 6.38446 6.88598 6.38055L6.88596 6.38055L6.8859 6.38052L6.88589 6.38051C6.7574 6.32021 5.77534 5.8593 5.76592 4.62334C5.75647 3.58593 6.54487 3.06031 6.66898 2.97757C6.67653 2.97253 6.68162 2.96914 6.68392 2.96737C6.18228 2.20624 5.39972 2.12396 5.12884 2.10339ZM9.15705 8.62954V0.611982H12.0916C13.6066 0.611982 14.6651 1.68168 14.6651 3.24507C14.6651 4.80847 13.5865 5.88845 12.0515 5.88845H10.371V8.62954H9.15705ZM10.3709 1.66111H11.7705C12.8239 1.66111 13.4259 2.23709 13.4259 3.25022C13.4259 4.26334 12.8239 4.84447 11.7655 4.84447H10.3709V1.66111ZM18.6732 7.66785C18.3522 8.29527 17.6449 8.69126 16.8824 8.69126C15.7537 8.69126 14.9661 8.00213 14.9661 6.96329C14.9661 5.93474 15.7286 5.34332 17.1382 5.2559L18.6532 5.16333V4.72105C18.6532 4.06792 18.2368 3.71307 17.4944 3.71307C16.8824 3.71307 16.4359 4.03707 16.3456 4.53077H15.252C15.2872 3.49193 16.2403 2.73595 17.5295 2.73595C18.919 2.73595 19.822 3.48165 19.822 4.63877V8.62954H18.6983V7.66785H18.6732ZM17.2084 7.73985C16.5612 7.73985 16.1499 7.421 16.1499 6.93244C16.1499 6.42845 16.5462 6.13531 17.3037 6.08903L18.6531 6.0016V6.45416C18.6531 7.20501 18.031 7.73985 17.2084 7.73985ZM23.5491 8.94326C23.0625 10.3472 22.5057 10.8101 21.3218 10.8101C21.2315 10.8101 20.9306 10.7998 20.8603 10.7792V9.81753C20.9356 9.82782 21.1212 9.8381 21.2165 9.8381C21.7533 9.8381 22.0542 9.60668 22.2398 9.00498L22.3502 8.65013L20.2935 2.8131H21.5626L22.9923 7.54958H23.0174L24.4471 2.8131H25.6811L23.5491 8.94326Z" fill="black"/>
</svg>
