<svg width="29" height="30" viewBox="0 0 29 30" fill="none" xmlns="http://www.w3.org/2000/svg">
<path fill-rule="evenodd" clip-rule="evenodd" d="M7 12C6.99982 11.0606 7.24774 10.1379 7.7187 9.32508C8.18965 8.5123 8.86693 7.83832 9.682 7.37133C9.67267 6.78511 9.66756 6.10578 9.66667 5.33333C9.66667 3.63267 9.696 2.39667 9.72667 1.57C9.75533 0.77 10.296 0.112 11.0933 0.0466667C11.4333 0.0193334 11.8453 0 12.3333 0C12.8213 0 13.2333 0.0193334 13.5733 0.0466667C14.3707 0.112 14.9113 0.77 14.94 1.57C14.9707 2.39667 15 3.63267 15 5.33333C14.9996 6.10578 14.9944 6.78511 14.9847 7.37133C15.7976 7.83709 16.4735 8.50878 16.9443 9.31878C17.4151 10.1288 17.6643 11.0485 17.6666 11.9854C17.669 12.9223 17.4246 13.8433 16.9578 14.6557C16.4911 15.4681 15.8187 16.1432 15.0081 16.6131C14.1976 17.0829 13.2775 17.331 12.3406 17.3323C11.4037 17.3336 10.483 17.088 9.67118 16.6204C8.85934 16.1527 8.18502 15.4794 7.71609 14.6683C7.24717 13.8572 7.00018 12.9369 7 12ZM16.9967 6.34C16.9989 6.02444 17 5.68889 17 5.33333C17 3.61 16.9707 2.34933 16.9393 1.49667C16.9289 1.22099 16.888 0.947324 16.8173 0.680667C21.716 2.35 25.2593 6.904 25.37 12.296L27.9567 15.9027C28.4187 16.5473 28.37 17.4893 27.62 17.9487C27.0513 18.2953 26.2207 18.7 25.106 18.9953L24.722 23.5487C24.6957 23.8616 24.6064 24.1661 24.4596 24.4437C24.3128 24.7214 24.1114 24.9665 23.8676 25.1645C23.6237 25.3624 23.3424 25.5091 23.0405 25.5958C22.7386 25.6824 22.4224 25.7072 22.1107 25.6687L20.4307 25.4607V27.4053C20.4307 28.41 19.7767 29.3187 18.7513 29.5087C17.5173 29.7387 15.4953 30 12.686 30C9.87667 30 7.85533 29.7387 6.62067 29.5087C5.596 29.318 4.94067 28.41 4.94067 27.4053V22.5C1.938 20.2053 0 16.6047 0 12.5553C0 7.33933 3.21333 2.86867 7.78467 0.972C7.75356 1.14533 7.73444 1.32022 7.72733 1.49667C7.696 2.34933 7.66667 3.61 7.66667 5.33333C7.66667 5.68889 7.66778 6.02444 7.67 6.34C6.83426 7.02742 6.16133 7.89158 5.69964 8.87028C5.23796 9.84898 4.99901 10.9179 5 12C5 15.9107 8.06133 19.1067 11.918 19.322C14.0967 21.3447 17.2667 22.6667 20.3333 22.6667C20.5986 22.6667 20.8529 22.5613 21.0404 22.3738C21.228 22.1862 21.3333 21.9319 21.3333 21.6667C21.3333 21.4015 21.228 21.1471 21.0404 20.9596C20.8529 20.772 20.5986 20.6667 20.3333 20.6667C18.3853 20.6667 16.354 20.0113 14.692 18.946C17.5853 17.964 19.6667 15.2247 19.6667 12C19.6677 10.9179 19.4287 9.84898 18.967 8.87028C18.5053 7.89158 17.8324 7.02742 16.9967 6.34Z" fill="black"/>
</svg>
