<svg width="24" height="14" viewBox="0 0 24 14" fill="none" xmlns="http://www.w3.org/2000/svg">
<path d="M16.1631 0C20.0488 0 23.1992 3.11263 23.1992 6.95215C23.1992 10.7916 20.0488 13.9043 16.1631 13.9043C14.4207 13.9042 12.8275 13.2768 11.5986 12.2402C10.37 13.2763 8.77794 13.9042 7.03613 13.9043C3.15041 13.9043 5.08581e-05 10.7916 0 6.95215C0 3.11263 3.15038 0 7.03613 0C8.77776 8.43421e-05 10.37 0.627252 11.5986 1.66309C12.8274 0.626691 14.4209 4.71518e-05 16.1631 0Z" fill="#ED0006"/>
<path d="M16.1631 0C20.0488 0 23.1992 3.11263 23.1992 6.95215C23.1992 10.7916 20.0488 13.9043 16.1631 13.9043C14.421 13.9042 12.8283 13.2765 11.5996 12.2402C13.1115 10.9651 14.0713 9.07017 14.0713 6.95215C14.0713 4.83369 13.112 2.93724 11.5996 1.66211C12.8282 0.626238 14.4214 6.57421e-05 16.1631 0Z" fill="#F9A000"/>
<path d="M11.5991 1.66309C13.1113 2.93821 14.0718 4.83383 14.0718 6.95215C14.0718 9.07025 13.1111 10.9651 11.5991 12.2402C10.0874 10.9651 9.12747 9.07007 9.12744 6.95215C9.12744 4.83401 10.0871 2.93821 11.5991 1.66309Z" fill="#FF5E00"/>
</svg>
