<svg width="27" height="19" viewBox="0 0 27 19" fill="none" xmlns="http://www.w3.org/2000/svg">
<path d="M0.641333 10.664C0.459111 10.664 0.306667 10.6 0.184 10.472C0.0613334 10.344 0 10.1853 0 9.996C0 9.80667 0.0640001 9.64844 0.192 9.52133C0.32 9.39422 0.478222 9.33067 0.666667 9.33067H5.30667C5.496 9.33067 5.65467 9.39467 5.78267 9.52267C5.91067 9.65067 5.97467 9.80933 5.97467 9.99867C5.97467 10.188 5.91067 10.3462 5.78267 10.4733C5.65467 10.6004 5.49644 10.664 5.308 10.664H0.641333ZM7.592 18.6667C6.66756 18.6667 5.88044 18.3422 5.23067 17.6933C4.58089 17.0471 4.256 16.2604 4.256 15.3333H2.41067C2.11289 15.3333 1.87511 15.2222 1.69733 15C1.51956 14.7778 1.46044 14.524 1.52 14.2387L1.948 12.664H5.27467C6.01956 12.664 6.64933 12.4062 7.164 11.8907C7.67867 11.3751 7.936 10.744 7.936 9.99733C7.936 9.58844 7.84711 9.21067 7.66933 8.864C7.49156 8.51733 7.24444 8.23022 6.928 8.00267H9.348C10.0947 8.00267 10.7258 7.74489 11.2413 7.22933C11.7569 6.71378 12.0147 6.08311 12.0147 5.33733C12.0147 4.59156 11.7569 3.96044 11.2413 3.444C10.7258 2.92756 10.0947 2.66933 9.348 2.66933H4.692L5.09733 1.20267C5.17911 0.853333 5.35244 0.565778 5.61733 0.34C5.87956 0.113333 6.19644 0 6.568 0H19.9733C20.3147 0 20.5933 0.136889 20.8093 0.410667C21.0244 0.684445 21.0933 0.989333 21.016 1.32533L20.2533 4.66667H21.948C22.2893 4.66667 22.6124 4.74311 22.9173 4.896C23.2231 5.048 23.4747 5.25867 23.672 5.528L26.068 8.72533C26.2618 8.98489 26.3876 9.25556 26.4453 9.53733C26.504 9.81822 26.5084 10.1133 26.4587 10.4227L25.6613 14.472C25.6116 14.7316 25.4853 14.94 25.2827 15.0973C25.08 15.2547 24.8498 15.3333 24.592 15.3333H23.948C23.948 16.2569 23.6244 17.0436 22.9773 17.6933C22.3302 18.3431 21.5436 18.6676 20.6173 18.6667C19.6911 18.6658 18.904 18.3413 18.256 17.6933C17.6071 17.0462 17.2827 16.2596 17.2827 15.3333H10.9227C10.9227 16.2569 10.5991 17.0436 9.952 17.6933C9.30489 18.3431 8.51822 18.6676 7.592 18.6667ZM3.30933 6.00267C3.12 6.00267 2.96133 5.93867 2.83333 5.81067C2.70533 5.68267 2.64133 5.524 2.64133 5.33467C2.64133 5.14533 2.70533 4.98711 2.83333 4.86C2.96133 4.73289 3.11956 4.66933 3.308 4.66933H9.308C9.49733 4.66933 9.656 4.73333 9.784 4.86133C9.91111 4.98933 9.97467 5.148 9.97467 5.33733C9.97467 5.52667 9.91111 5.68489 9.784 5.812C9.65689 5.93911 9.49822 6.00267 9.308 6.00267H3.30933ZM7.58933 17.3333C8.13778 17.3333 8.60844 17.1373 9.00133 16.7453C9.39333 16.3524 9.58933 15.8818 9.58933 15.3333C9.58933 14.7849 9.39333 14.3142 9.00133 13.9213C8.60933 13.5284 8.13867 13.3324 7.58933 13.3333C7.04 13.3342 6.56933 13.5302 6.17733 13.9213C5.78533 14.3142 5.58933 14.7849 5.58933 15.3333C5.58933 15.8818 5.78533 16.3524 6.17733 16.7453C6.57022 17.1373 7.04089 17.3333 7.58933 17.3333ZM20.616 17.3333C21.1644 17.3333 21.6347 17.1373 22.0267 16.7453C22.4187 16.3524 22.6147 15.8818 22.6147 15.3333C22.6147 14.7849 22.4187 14.3142 22.0267 13.9213C21.6347 13.5284 21.164 13.3324 20.6147 13.3333C20.0653 13.3342 19.5951 13.5302 19.204 13.9213C18.8111 14.3142 18.6147 14.7849 18.6147 15.3333C18.6147 15.8818 18.8107 16.3524 19.2027 16.7453C19.5956 17.1373 20.0667 17.3333 20.616 17.3333ZM18.7707 11H24.9747L25.2093 9.81333L22.3587 6H19.9347L18.7707 11Z" fill="black"/>
</svg>
