<svg width="12" height="14" viewBox="0 0 12 14" fill="none" xmlns="http://www.w3.org/2000/svg">
<path fill-rule="evenodd" clip-rule="evenodd" d="M3.18179 13.1968L3.41081 11.6932L2.90062 11.6809H0.464355L2.15747 0.584963C2.16275 0.551363 2.1798 0.520172 2.2047 0.497984C2.22973 0.475795 2.26162 0.463623 2.29499 0.463623H6.40291C7.76677 0.463623 8.70791 0.756892 9.19921 1.33582C9.42959 1.60741 9.57631 1.8913 9.64734 2.20359C9.7218 2.53134 9.72302 2.92287 9.6504 3.4005L9.64513 3.43524V3.74132L9.87551 3.87622C10.0694 3.9826 10.2236 4.10432 10.3419 4.24366C10.5389 4.47595 10.6664 4.77112 10.7202 5.12094C10.7759 5.48077 10.7575 5.90907 10.6664 6.39392C10.5612 6.95155 10.3913 7.43729 10.1618 7.83466C9.95083 8.20083 9.68193 8.50463 9.36261 8.73995C9.05777 8.96361 8.69565 9.13339 8.28617 9.24205C7.88932 9.34881 7.43691 9.40269 6.9407 9.40269H6.62102C6.39248 9.40269 6.17044 9.48777 5.99613 9.6403C5.82132 9.796 5.70576 10.0088 5.67031 10.2414L5.64614 10.3768L5.24145 13.0272L5.22317 13.1244C5.21826 13.1552 5.20992 13.1706 5.19765 13.181C5.18674 13.1905 5.17103 13.1968 5.1557 13.1968H3.18179Z" fill="#28356A"/>
<path fill-rule="evenodd" clip-rule="evenodd" d="M10.0941 3.47046C10.0819 3.55148 10.0678 3.63427 10.0521 3.71935C9.51039 6.59422 7.65694 7.58738 5.28986 7.58738H4.08461C3.7951 7.58738 3.55111 7.80458 3.50609 8.09975L2.71424 13.2912C2.68492 13.4851 2.82943 13.6597 3.01859 13.6597H5.15627C5.40934 13.6597 5.62439 13.4696 5.66426 13.2116L5.68523 13.0994L6.08772 10.4595L6.1136 10.3147C6.15298 10.0558 6.36852 9.86558 6.62159 9.86558H6.94127C9.01235 9.86558 10.6337 8.99655 11.1076 6.48151C11.3055 5.43091 11.203 4.55364 10.6792 3.93667C10.5207 3.75067 10.3241 3.59624 10.0941 3.47046Z" fill="#298FC2"/>
<path fill-rule="evenodd" clip-rule="evenodd" d="M9.52721 3.2371C9.44441 3.21212 9.35903 3.18955 9.27144 3.16914C9.18337 3.14923 9.0932 3.13161 9.00034 3.11614C8.67538 3.06187 8.31926 3.03613 7.93788 3.03613H4.7181C4.63874 3.03613 4.56341 3.05464 4.49607 3.08812C4.34751 3.16191 4.23723 3.30721 4.21049 3.4851L3.52549 7.96921L3.50586 8.09994C3.55088 7.80477 3.79487 7.58757 4.08438 7.58757H5.28963C7.65671 7.58757 9.51016 6.59391 10.0519 3.71954C10.0681 3.63446 10.0817 3.55167 10.0938 3.47065C9.95681 3.39546 9.80838 3.33118 9.64854 3.2764C9.60904 3.26284 9.56831 3.24978 9.52721 3.2371Z" fill="#22284F"/>
<path fill-rule="evenodd" clip-rule="evenodd" d="M4.21043 3.485C4.23718 3.30711 4.34746 3.1618 4.49601 3.08852C4.56385 3.05492 4.63868 3.03641 4.71805 3.03641H7.93782C8.31921 3.03641 8.67533 3.06227 9.00029 3.11654C9.09315 3.13188 9.18331 3.14963 9.27139 3.16954C9.35898 3.18982 9.44436 3.21252 9.52716 3.23737C9.56826 3.25005 9.60898 3.26324 9.64885 3.2763C9.80869 3.33107 9.95725 3.39586 10.0943 3.47054C10.2555 2.40815 10.0929 1.68481 9.53722 1.0298C8.92447 0.308611 7.81871 0 6.40369 0H2.29565C2.00663 0 1.76006 0.217194 1.71541 0.512872L0.00437892 11.7229C-0.0293559 11.9447 0.136129 12.1447 0.352522 12.1447H2.88864L4.21043 3.485Z" fill="#28356A"/>
</svg>
