<svg width="26" height="22" viewBox="0 0 26 22" fill="none" xmlns="http://www.w3.org/2000/svg">
<path d="M24 0H2C1.46957 0 0.960859 0.210714 0.585786 0.585786C0.210714 0.960859 0 1.46957 0 2V20C0 20.5304 0.210714 21.0391 0.585786 21.4142C0.960859 21.7893 1.46957 22 2 22H24C24.5304 22 25.0391 21.7893 25.4142 21.4142C25.7893 21.0391 26 20.5304 26 20V2C26 1.46957 25.7893 0.960859 25.4142 0.585786C25.0391 0.210714 24.5304 0 24 0ZM20 12C20 12.2652 19.8946 12.5196 19.7071 12.7071C19.5196 12.8946 19.2652 13 19 13H9.41375L10.7075 14.2925C10.8004 14.3854 10.8741 14.4957 10.9244 14.6171C10.9747 14.7385 11.0006 14.8686 11.0006 15C11.0006 15.1314 10.9747 15.2615 10.9244 15.3829C10.8741 15.5043 10.8004 15.6146 10.7075 15.7075C10.6146 15.8004 10.5043 15.8741 10.3829 15.9244C10.2615 15.9747 10.1314 16.0006 10 16.0006C9.8686 16.0006 9.7385 15.9747 9.6171 15.9244C9.49571 15.8741 9.38541 15.8004 9.2925 15.7075L6.2925 12.7075C6.19952 12.6146 6.12576 12.5043 6.07544 12.3829C6.02512 12.2615 5.99921 12.1314 5.99921 12C5.99921 11.8686 6.02512 11.7385 6.07544 11.6171C6.12576 11.4957 6.19952 11.3854 6.2925 11.2925L9.2925 8.2925C9.48014 8.10486 9.73464 7.99944 10 7.99944C10.2654 7.99944 10.5199 8.10486 10.7075 8.2925C10.8951 8.48014 11.0006 8.73464 11.0006 9C11.0006 9.26536 10.8951 9.51986 10.7075 9.7075L9.41375 11H18V8C18 7.73478 18.1054 7.48043 18.2929 7.29289C18.4804 7.10536 18.7348 7 19 7C19.2652 7 19.5196 7.10536 19.7071 7.29289C19.8946 7.48043 20 7.73478 20 8V12Z" fill="black"/>
</svg>
