<svg width="26" height="33" viewBox="0 0 26 33" fill="none" xmlns="http://www.w3.org/2000/svg">
<path d="M23.3333 18.6668H15.3333C15.2713 18.669 15.21 18.6524 15.1577 18.619C15.1053 18.5857 15.0643 18.5373 15.04 18.4801L13.76 16.0001C13.7116 15.8993 13.6386 15.8122 13.5477 15.7469C13.4569 15.6817 13.351 15.6404 13.24 15.6268C13.1279 15.6139 13.0144 15.6291 12.9097 15.6709C12.8049 15.7128 12.7123 15.7801 12.64 15.8668L10.1333 18.9468C9.9271 19.1653 9.64638 19.2985 9.34667 19.3201H8.01333C7.92354 19.3183 7.8343 19.3346 7.75098 19.3682C7.66766 19.4017 7.59197 19.4517 7.52846 19.5152C7.46495 19.5787 7.41493 19.6544 7.3814 19.7378C7.34787 19.8211 7.33152 19.9103 7.33333 20.0001V28.0001C7.33116 28.104 7.3543 28.2068 7.40076 28.2997C7.44722 28.3927 7.5156 28.4729 7.6 28.5334C10.6667 30.8401 13.04 32.0001 14.6667 32.0001H22.0667C22.6472 32.0983 23.2432 31.9668 23.7285 31.6333C24.2138 31.2998 24.5502 30.7906 24.6667 30.2134C25.3163 27.0633 25.7616 23.8744 26 20.6668C26 19.6668 25.08 18.6668 23.3333 18.6668ZM4.44 18.0001H0.333333C0.244928 18.0001 0.160143 18.0352 0.0976311 18.0977C0.035119 18.1603 0 18.245 0 18.3334V30.3334C0 30.4219 0.035119 30.5066 0.0976311 30.5691C0.160143 30.6317 0.244928 30.6668 0.333333 30.6668H4.44C4.55151 30.6799 4.66453 30.6694 4.7717 30.6359C4.87888 30.6025 4.97782 30.5468 5.06208 30.4726C5.14634 30.3984 5.21404 30.3073 5.26077 30.2052C5.30751 30.1032 5.33223 29.9924 5.33333 29.8801V18.7868C5.33223 18.6745 5.30751 18.5637 5.26077 18.4616C5.21404 18.3596 5.14634 18.2684 5.06208 18.1943C4.97782 18.1201 4.87888 18.0644 4.7717 18.031C4.66453 17.9975 4.55151 17.987 4.44 18.0001ZM18.6667 12.0001C18.6667 12.5305 18.8774 13.0393 19.2525 13.4143C19.6275 13.7894 20.1362 14.0001 20.6667 14.0001C21.1971 14.0001 21.7058 13.7894 22.0809 13.4143C22.456 13.0393 22.6667 12.5305 22.6667 12.0001C22.6667 11.4697 22.456 10.961 22.0809 10.5859C21.7058 10.2108 21.1971 10.0001 20.6667 10.0001C20.1362 10.0001 19.6275 10.2108 19.2525 10.5859C18.8774 10.961 18.6667 11.4697 18.6667 12.0001ZM11.3333 14.6668C11.5279 14.6693 11.7207 14.6292 11.8981 14.5493C12.0756 14.4693 12.2333 14.3515 12.3604 14.2041C12.4875 14.0567 12.5807 13.8833 12.6336 13.6961C12.6865 13.5088 12.6978 13.3122 12.6667 13.1201L10.9733 3.05344C10.9405 2.96759 10.9405 2.87264 10.9733 2.78678C11.014 2.73254 11.0703 2.69199 11.1346 2.67055C11.1989 2.64911 11.2682 2.64779 11.3333 2.66678H22C22.3536 2.66678 22.6928 2.5263 22.9428 2.27625C23.1929 2.02621 23.3333 1.68707 23.3333 1.33344C23.3333 0.979822 23.1929 0.640684 22.9428 0.390635C22.6928 0.140587 22.3536 0.000110897 22 0.000110897H9.33333C9.13875 -0.00239878 8.94597 0.0377159 8.76854 0.117638C8.59111 0.197561 8.43332 0.315354 8.30626 0.462747C8.1792 0.61014 8.08594 0.78356 8.03303 0.970832C7.98012 1.1581 7.96885 1.35469 8 1.54678L10 13.5468C10.0511 13.8623 10.2139 14.1489 10.4586 14.3545C10.7033 14.5601 11.0137 14.6709 11.3333 14.6668Z" fill="black"/>
</svg>
