<svg width="26" height="11" viewBox="0 0 26 11" fill="none" xmlns="http://www.w3.org/2000/svg">
<path d="M17.6426 2.31641C18.892 2.31654 20.07 3.47544 20.0771 5.60156C20.0771 7.92575 18.9128 8.98145 17.6348 8.98145C17.0067 8.98131 16.6281 8.71011 16.3711 8.51953L16.3643 10.5947L14.5791 10.9834V2.43457H16.1504L16.2432 2.88867C16.4931 2.65406 16.943 2.31641 17.6426 2.31641ZM2.41309 2.31641C3.00562 2.31641 3.59106 2.41241 4.18359 2.6543V4.37695C3.64102 4.07646 2.95561 3.9082 2.41309 3.9082C2.03481 3.90823 1.8067 4.01788 1.80664 4.30371C1.80664 5.12483 4.52672 4.73644 4.53418 6.9209C4.53418 8.2333 3.51243 8.98926 2.02734 8.98926C1.41341 8.98921 0.742007 8.86451 0.078125 8.57129V6.82617C0.677757 7.16337 1.43479 7.41201 2.02734 7.41211C2.42718 7.41211 2.71289 7.30211 2.71289 6.96484C2.71198 6.0929 0 6.41486 0 4.3916C9.6254e-05 3.09402 0.963854 2.31646 2.41309 2.31641ZM6.62598 2.44141H7.98242V4.00293H6.62598V6.60645C6.62629 7.69102 7.75398 7.35409 7.98242 7.25879V8.74707C7.74681 8.87904 7.31789 8.98926 6.73242 8.98926C5.67589 8.98909 4.88379 8.18949 4.88379 7.10449L4.89062 1.23145L6.63281 0.850586L6.62598 2.44141ZM23.126 2.31641C24.818 2.31649 25.7031 3.79793 25.7031 5.6748C25.7031 5.85062 25.6895 6.23143 25.6895 6.32715H22.1973C22.2758 7.19231 22.8904 7.44141 23.583 7.44141C24.2896 7.44137 24.8466 7.28826 25.332 7.03906V8.50488C24.8466 8.78347 24.204 8.98142 23.3545 8.98145C21.6124 8.98145 20.3984 7.86705 20.3984 5.66016C20.3985 3.79788 21.4267 2.31641 23.126 2.31641ZM10.2031 2.98438C10.6241 2.19299 11.4585 2.35339 11.6875 2.44141V4.12793C11.4658 4.0473 10.7521 3.94458 10.3311 4.50879V8.85645H8.5459V2.44141H10.0889L10.2031 2.98438ZM13.915 8.85645H12.123V2.44141H13.915V8.85645ZM17.2139 3.94434C16.807 3.94436 16.5499 4.09111 16.3643 4.30371L16.3711 7.02344C16.5424 7.21405 16.7927 7.36814 17.2139 7.36816C17.8706 7.36816 18.3133 6.63555 18.3135 5.65332C18.3135 4.69285 17.8636 3.94434 17.2139 3.94434ZM23.1182 3.80566C22.6685 3.80591 22.1758 4.15031 22.1758 4.97852H24.0186C24.0186 4.15002 23.5537 3.80566 23.1182 3.80566ZM13.915 1.48828L12.123 1.88477V0.388672L13.915 0V1.48828Z" fill="#6461FC"/>
</svg>
