<svg width="25" height="9" viewBox="0 0 25 9" fill="none" xmlns="http://www.w3.org/2000/svg">
<path fill-rule="evenodd" clip-rule="evenodd" d="M6.1741 8.05012H4.03687L2.43421 1.75604C2.35814 1.46652 2.19663 1.21056 1.95904 1.08992C1.36612 0.786755 0.712757 0.545483 0 0.423797V0.181475H3.44291C3.91808 0.181475 4.27446 0.545483 4.33385 0.968235L5.1654 5.50836L7.30159 0.181475H9.37942L6.1741 8.05012ZM10.5674 8.05012H8.54892L10.211 0.181475H12.2294L10.5674 8.05012ZM14.8408 2.36133C14.9002 1.93753 15.2565 1.6952 15.6723 1.6952C16.3257 1.63436 17.0374 1.75605 17.6314 2.05816L17.9877 0.364007C17.3938 0.121685 16.7404 0 16.1475 0C14.1885 0 12.7629 1.08992 12.7629 2.6026C12.7629 3.75337 13.7727 4.3576 14.4854 4.7216C15.2565 5.08456 15.5535 5.32688 15.4941 5.68984C15.4941 6.23428 14.9002 6.4766 14.3072 6.4766C13.5945 6.4766 12.8817 6.29512 12.2294 5.99196L11.873 7.68716C12.5858 7.98928 13.3569 8.11096 14.0697 8.11096C16.2663 8.17076 17.6314 7.08188 17.6314 5.44752C17.6314 3.38936 14.8408 3.26872 14.8408 2.36133ZM24.6954 8.05012L23.0927 0.181475H21.3712C21.0149 0.181475 20.6585 0.423797 20.5397 0.786755L17.572 8.05012H19.6498L20.0645 6.9004H22.6175L22.8551 8.05012H24.6954ZM21.6682 2.30049L22.2612 5.26605H20.5991L21.6682 2.30049Z" fill="#172B85"/>
</svg>
